<svg width="184" height="49" xmlns="http://www.w3.org/2000/svg"><g fill="none" fill-rule="evenodd"><path d="M144.353 12.79c0 2.421-.5 4.505-1.499 6.25-.999 1.746-2.376 3.164-4.132 4.254-1.817 1.13-3.89 1.948-6.222 2.452-2.33.505-4.95.757-7.855.757h-3.512v12.079c0 .727.136 1.357.409 1.892.272.535.792.964 1.559 1.287.403.161 1.06.333 1.967.514.909.182 1.675.303 2.301.364V45h-23.28v-2.361c.585-.06 1.362-.147 2.33-.258.97-.11 1.646-.247 2.03-.408.786-.323 1.306-.717 1.558-1.181.253-.464.379-1.11.379-1.938V8.551c0-.707-.121-1.317-.364-1.832-.242-.514-.766-.943-1.574-1.286-.565-.243-1.317-.46-2.255-.651a32.746 32.746 0 00-2.104-.379V2.042h23.704c5.55 0 9.698.883 12.442 2.649 2.745 1.766 4.118 4.465 4.118 8.098zm-11.807 1.543c0-3.23-.651-5.626-1.953-7.19s-3.617-2.346-6.947-2.346h-2.513v18.86h1.271c3.31 0 5.828-.762 7.554-2.285 1.725-1.524 2.588-3.87 2.588-7.039zm33.028 31.817c-2.623 0-5.07-.323-7.341-.968-2.27-.646-4.193-1.413-5.767-2.301L150.377 45h-2.573l-.394-15.53h2.604c.585 1.473 1.332 3.027 2.24 4.662a22.719 22.719 0 003.148 4.39 16.264 16.264 0 004.133 3.3c1.523.847 3.305 1.27 5.343 1.27 2.745 0 4.849-.67 6.312-2.012 1.463-1.343 2.195-3.033 2.195-5.071 0-1.675-.62-3.083-1.862-4.223-1.241-1.14-3.164-2.125-5.767-2.952a1135.04 1135.04 0 01-4.677-1.514 79.018 79.018 0 01-4.012-1.423c-2.886-1.15-5.03-2.795-6.433-4.934-1.402-2.14-2.104-4.531-2.104-7.175 0-1.675.364-3.285 1.09-4.829.727-1.543 1.786-2.931 3.179-4.162 1.332-1.15 3.037-2.089 5.116-2.816 2.079-.726 4.34-1.09 6.781-1.09 2.382 0 4.612.329 6.69.984 2.08.656 3.714 1.317 4.905 1.983l1.847-1.816h2.633l.243 14.652h-2.604a56.219 56.219 0 00-2.134-4.828c-.818-1.645-1.68-3.012-2.589-4.102a11.762 11.762 0 00-3.42-2.8c-1.292-.697-2.806-1.045-4.541-1.045-2.18 0-3.961.615-5.344 1.847-1.382 1.23-2.073 2.754-2.073 4.57 0 1.716.6 3.12 1.8 4.209 1.202 1.09 3.074 2.048 5.617 2.876 1.493.504 3.017 1.009 4.57 1.514 1.555.504 2.937.989 4.148 1.453 2.927 1.13 5.152 2.689 6.676 4.677 1.523 1.988 2.285 4.455 2.285 7.402 0 1.857-.434 3.653-1.301 5.388-.868 1.736-2.039 3.18-3.512 4.33-1.615 1.271-3.482 2.25-5.6 2.936-2.12.686-4.592 1.03-7.418 1.03zM60.122 45h-23.28v-2.361c.686-.06 1.529-.162 2.528-.303.999-.141 1.68-.293 2.043-.454.747-.303 1.282-.717 1.605-1.241.322-.525.484-1.191.484-1.998V6.553l-14.773 37.75h-3.815c-.182-.665-.63-1.987-1.347-3.965a566.444 566.444 0 00-1.74-4.753L10.957 6.068v26.126c0 2.503.167 4.405.5 5.707.333 1.302.872 2.255 1.62 2.86.504.425 1.407.828 2.709 1.212 1.301.383 2.215.605 2.74.666V45H.06v-2.361c.504-.06 1.327-.197 2.467-.409 1.14-.212 2.074-.58 2.8-1.105.807-.565 1.352-1.519 1.635-2.86.282-1.343.424-3.255.424-5.738V11.245c0-1.292-.162-2.366-.485-3.224-.323-.858-.807-1.539-1.453-2.043-.807-.626-1.635-1.03-2.482-1.211a18.366 18.366 0 00-2.573-.364V2.042H20.16l10.596 28.366 8.93-23.038c.303-.848.596-1.857.878-3.027.283-1.17.434-1.938.455-2.301h19.042v2.361a19.06 19.06 0 00-2.029.243 15.67 15.67 0 00-2.028.484c-.787.262-1.307.676-1.56 1.241a4.553 4.553 0 00-.378 1.877v30.425c0 .726.127 1.337.379 1.831.252.495.772.924 1.559 1.287.404.182 1.064.353 1.983.515.918.161 1.63.272 2.134.333V45z" fill="#000" fill-rule="nonzero"/><path d="M38.325 46.23h87.766c-5.135-1.292-13.39-6.389-24.767-15.29-11.377-8.903-17.866-15.305-19.47-19.206L64.341 30.939 38.325 46.23z" fill="#FFF"/><path d="M81.854 8l3.617 38.23h45.238c-14.442-7.834-23.857-13.51-28.245-17.027C98.076 25.686 91.206 18.62 81.854 8z" stroke="#D8D8D8" fill="#D8D8D8"/><path d="M80.84 13.44l2.96 2.81-2.96 1.017 2.96 1.3h-2.96l2.96 2.918h-2.96l2.96 2.273-2.065.331 3.738 2.35-4.632-1.504 4.632 3.9-3.465-1.533 3.798 3.153c-2.895-.64-4.252-.96-4.07-.96.272 0 3.737 3.05 3.737 3.24 0 .191-2.43.516-2.15.516.187 0 1.225.877 3.114 2.633l-3.114.657 2.804 2.135-2.095.319 2.095 2.396-2.095-.362 2.095 1.859h-2.095l2.82 2.38c-1.676-.275-2.515-.343-2.515-.206 0 .206.837 1.26 1.469 1.534.42.183 1.52.536 3.297 1.06l1.601-2.099 2.506 1.662.552-1.126.445-1.889.56 3.259 1.194-3.59.756 3.346 2.183-1.95 1.27 2.386 1.178-2.098 2.23 2.098.898-2.098 3.149 1.906 1.291-1.906 2.203 2.098 2.14-2.387 2.95 2.387.793-2.387.962 2.387.611-2.098 2.927 2.882 1.15-2.346 2.189 1.126v-1.45" stroke="#D8D8D8" stroke-linecap="round" stroke-linejoin="round"/><path d="M33 46.23c9.106-3.62 18.07-8.663 26.89-15.129C68.713 24.636 75.964 16.935 81.645 8c5.384 7.034 12.324 14.102 20.82 21.203 8.496 7.102 17.91 12.777 28.245 17.027" stroke="#000" stroke-width="4" stroke-linecap="round" stroke-linejoin="round"/></g></svg>